<svg width="1200" height="800" viewBox="0 0 1200 800" fill="none" xmlns="http://www.w3.org/2000/svg">
  <defs>
    <linearGradient id="grad" x1="0" y1="0" x2="1" y2="1">
      <stop offset="0%" stop-color="#0F172A" />
      <stop offset="100%" stop-color="#1E293B" />
    </linearGradient>
    <linearGradient id="accent" x1="0" y1="0" x2="1" y2="0">
      <stop offset="0%" stop-color="#22D3EE" />
      <stop offset="100%" stop-color="#8B5CF6" />
    </linearGradient>
    <pattern id="grid" x="0" y="0" width="40" height="40" patternUnits="userSpaceOnUse">
      <path d="M40 0H0V40" stroke="#334155" stroke-width="1" />
    </pattern>
    <filter id="shadow" x="-20" y="-20" width="1240" height="840" filterUnits="userSpaceOnUse" color-interpolation-filters="sRGB">
      <feDropShadow dx="0" dy="12" stdDeviation="24" flood-color="#000000" flood-opacity="0.35" />
    </filter>
  </defs>
  <rect width="1200" height="800" rx="32" fill="url(#grad)" />
  <rect width="1200" height="800" rx="32" fill="url(#grid)" opacity="0.35" />
  <g filter="url(#shadow)">
    <rect x="120" y="120" width="960" height="560" rx="28" fill="#0B1224" stroke="#1F2937" stroke-width="2" />
    <rect x="120" y="260" width="960" height="2" fill="#1F2937" />
    <rect x="160" y="180" width="280" height="36" rx="12" fill="#111827" stroke="#1F2937" />
    <rect x="160" y="180" width="160" height="36" rx="12" fill="url(#accent)" opacity="0.85" />
    <rect x="160" y="290" width="520" height="28" rx="10" fill="#111827" stroke="#1F2937" />
    <rect x="160" y="330" width="420" height="20" rx="8" fill="#111827" stroke="#1F2937" />
    <rect x="160" y="370" width="460" height="20" rx="8" fill="#111827" stroke="#1F2937" />
    <rect x="160" y="410" width="380" height="20" rx="8" fill="#111827" stroke="#1F2937" />
    <rect x="160" y="470" width="280" height="16" rx="8" fill="#1F2937" />
    <rect x="160" y="500" width="320" height="16" rx="8" fill="#1F2937" />
    <rect x="160" y="530" width="240" height="16" rx="8" fill="#1F2937" />
    <rect x="740" y="290" width="240" height="160" rx="18" fill="#0F172A" stroke="#1F2937" />
    <rect x="740" y="470" width="200" height="70" rx="16" fill="#111827" stroke="#1F2937" />
    <circle cx="830" cy="360" r="54" fill="#0F172A" stroke="#1F2937" stroke-width="2" />
    <path d="M820 360L838 374L860 342" stroke="url(#accent)" stroke-width="10" stroke-linecap="round" stroke-linejoin="round" />
  </g>
  <rect x="120" y="120" width="960" height="560" rx="28" fill="url(#grad)" opacity="0.25" />
</svg>
